<?xml version="1.0" encoding="UTF-8"?>
<!-- Generated by Pixelmator Pro 3.7.1 -->
<svg width="41" height="64" viewBox="0 0 41 64" xmlns="http://www.w3.org/2000/svg">
    <g id="XMLID-2767--">
        <g id="XMLID-2772-">
            <g id="XMLID-2799-">
                <path id="XMLID-18520-" fill="#021433" stroke="none" d="M 32.516113 45.015869 C 39.048828 48.558838 39.037598 54.647583 32.516113 58.54126 C 26.102539 62.370728 15.558594 62.276245 9.089355 58.54126 C 2.620605 54.806274 2.620605 48.750732 9.089844 45.016235 C 15.558594 41.28125 25.950195 41.455078 32.516113 45.015869 Z"/>
                <path id="XMLID-18521-" fill="#021433" stroke="none" d="M 20.881836 62.42749 C 16.450195 62.42749 11.989258 61.435059 8.562012 59.455444 C 5.090332 57.452515 3.179199 54.728271 3.179199 51.780029 C 3.179199 48.825806 5.090332 46.101563 8.562012 44.098755 C 15.200195 40.263672 25.945313 40.252075 33.021484 44.080811 L 33.021484 44.080811 C 36.475098 45.959961 38.407227 48.595459 38.469238 51.508301 C 38.53125 54.51001 36.60791 57.328369 33.05957 59.449585 C 29.73291 61.435059 25.319336 62.42749 20.881836 62.42749 Z M 20.645508 43.348267 C 16.598145 43.348267 12.600586 44.210815 9.619629 45.93042 C 6.833496 47.543335 5.297363 49.617432 5.297363 51.780029 C 5.297363 53.936646 6.833496 56.010742 9.619629 57.623779 C 15.894531 61.23999 25.921875 61.251709 31.972656 57.629639 C 34.841309 55.91626 36.395508 53.759644 36.351074 51.549683 C 36.306641 49.434082 34.767578 47.442993 32.010742 45.947876 C 28.816895 44.216675 24.70459 43.348267 20.645508 43.348267 Z"/>
            </g>
            <g id="XMLID-2798-">
                <linearGradient id="linearGradient1" x1="4.237917" y1="35.149167" x2="34.012917" y2="35.149167" gradientUnits="userSpaceOnUse">
                    <stop offset="0" stop-color="#bdfdff" stop-opacity="1"/>
                    <stop offset="1" stop-color="#277dcf" stop-opacity="1"/>
                </linearGradient>
                <path id="XMLID-18511-" fill="url(#linearGradient1)" stroke="none" d="M 33.959961 50.727905 L 32.512695 43.482544 L 5.750977 43.482544 L 4.291016 50.727905 C 3.941406 53.169556 5.316895 55.677856 8.552734 57.545776 C 14.391602 60.91748 23.859375 60.91748 29.699219 57.545776 C 32.93457 55.677856 34.30957 53.169556 33.959961 50.727905 Z"/>
                <path id="XMLID-18516-" fill="#021433" stroke="none" d="M 19.126953 61.109985 C 15.105957 61.109985 11.084961 60.229614 8.024414 58.462891 C 4.555664 56.460083 2.812988 53.588379 3.241211 50.580444 L 4.712402 43.277466 C 4.810059 42.780762 5.244141 42.426636 5.749512 42.426636 L 32.513184 42.426636 C 33.018555 42.426636 33.452637 42.780762 33.549805 43.277466 L 34.998047 50.521729 C 35.003906 50.539063 35.006836 50.557007 35.009766 50.580444 C 35.437988 53.588379 33.694824 56.465942 30.226563 58.462891 C 27.166016 60.229614 23.14502 61.109985 19.126953 61.109985 Z M 6.615234 44.541626 L 5.327148 50.934937 C 5.037598 52.985352 6.402344 55.082886 9.082031 56.631226 C 14.621094 59.822021 23.635254 59.815796 29.168945 56.631226 C 31.836426 55.089111 33.20166 53.003296 32.917969 50.905396 L 31.644531 44.541626 L 6.615234 44.541626 Z"/>
            </g>
            <g id="XMLID-2777-">
                <linearGradient id="linearGradient2" x1="9.51625" y1="23.95375" x2="82.63" y2="39.677125" gradientUnits="userSpaceOnUse">
                    <stop offset="0" stop-color="#bcfffe" stop-opacity="1"/>
                    <stop offset="1" stop-color="#5cc8fe" stop-opacity="1"/>
                </linearGradient>
                <path id="XMLID-18512-" fill="url(#linearGradient2)" stroke="none" d="M 28.617188 38.484497 C 33.859375 41.510864 33.859375 46.417969 28.617188 49.444214 C 23.375 52.470825 14.876465 52.470825 9.634277 49.444214 C 4.39209 46.417969 4.39209 41.510864 9.634277 38.484497 C 14.876465 35.458008 23.375 35.458008 28.617188 38.484497 Z"/>
                <path id="XMLID-18513-" fill="#021433" stroke="none" d="M 19.123535 52.755005 C 15.495605 52.755005 11.868164 51.95752 9.105469 50.362061 C 6.228027 48.70166 4.644531 46.426636 4.644531 43.963013 C 4.644531 41.498779 6.230957 39.22998 9.105469 37.56958 C 14.633301 34.378784 23.623535 34.378784 29.14502 37.56958 C 32.022949 39.22998 33.606445 41.498779 33.609375 43.963013 C 33.609375 46.426636 32.025879 48.70166 29.14502 50.362061 C 26.382813 51.95752 22.754883 52.755005 19.123535 52.755005 Z M 19.123535 37.262085 C 15.879883 37.262085 12.633301 37.977051 10.163574 39.401245 C 7.971191 40.665771 6.762695 42.284668 6.762695 43.963013 C 6.762695 45.640747 7.971191 47.26001 10.163574 48.530396 C 15.105957 51.378296 23.14502 51.378296 28.087402 48.530396 C 30.282715 47.26001 31.490723 45.640747 31.490723 43.963013 C 31.490723 42.284668 30.282715 40.665771 28.087402 39.401245 L 28.087402 39.401245 C 25.617676 37.977051 22.370605 37.262085 19.123535 37.262085 Z"/>
            </g>
        </g>
        <g id="XMLID-2769-">
            <g id="XMLID-2771-">
                <linearGradient id="linearGradient3" x1="32.045" y1="-6.634583" x2="66.741917" y2="41.32875" gradientUnits="userSpaceOnUse">
                    <stop offset="0" stop-color="#fee69d" stop-opacity="1"/>
                    <stop offset="1" stop-color="#c89704" stop-opacity="1"/>
                </linearGradient>
                <path id="XMLID-18502-" fill="url(#linearGradient3)" stroke="none" d="M 34.81543 20.078735 C 34.81543 11.412964 27.791016 4.388794 19.125488 4.388794 C 10.460449 4.388794 3.435059 11.412964 3.435059 20.078735 C 3.435059 26.568726 7.378906 32.13501 12.998535 34.522095 L 13.002441 37.554565 C 13.002441 40.939209 15.740723 43.67749 19.125488 43.67749 C 22.509766 43.67749 25.248535 40.939209 25.248535 37.554565 L 25.244629 34.527588 C 30.869141 32.142456 34.81543 26.57251 34.81543 20.078735 Z"/>
                <path id="XMLID-18508-" fill="#021433" stroke="none" d="M 19.123535 44.736694 C 15.165039 44.736694 11.944336 41.516724 11.944336 37.551758 L 11.941895 35.205811 C 6.106934 32.43457 2.378418 26.573242 2.378418 20.079468 C 2.378418 10.844116 9.888184 3.328247 19.123535 3.328247 C 28.359375 3.328247 35.872559 10.844116 35.872559 20.079468 C 35.872559 26.584961 32.140625 32.446655 26.305664 35.212036 L 26.305664 37.551758 C 26.305664 41.516724 23.085938 44.736694 19.123535 44.736694 Z M 19.123535 5.443848 C 11.058105 5.443848 4.493652 12.008423 4.493652 20.079468 C 4.493652 25.95874 7.994629 31.24707 13.413086 33.54541 C 13.802734 33.711182 14.057129 34.094971 14.057129 34.520386 L 14.060059 37.551758 C 14.060059 40.34668 16.332031 42.621704 19.123535 42.621704 C 21.916016 42.621704 24.190918 40.34668 24.190918 37.551758 L 24.187988 34.526611 C 24.18457 34.101196 24.441895 33.717041 24.831543 33.551636 C 30.25293 31.25293 33.756836 25.9646 33.756836 20.079468 C 33.756836 12.008423 27.192383 5.443848 19.123535 5.443848 Z"/>
            </g>
            <linearGradient id="linearGradient4" x1="24.46875" y1="2.755417" x2="46.154292" y2="29.288333" gradientUnits="userSpaceOnUse">
                <stop offset="0" stop-color="#f9e7b0" stop-opacity="1"/>
                <stop offset="1" stop-color="#fffc67" stop-opacity="1"/>
            </linearGradient>
            <path id="XMLID-2770-" fill="url(#linearGradient4)" stroke="none" d="M 23.79248 19.119629 C 23.79248 23.142456 20.53125 26.403809 16.508301 26.403809 C 12.485352 26.403809 9.224121 23.142456 9.224121 19.119629 C 9.224121 15.09668 12.485352 11.835449 16.508301 11.835449 C 20.53125 11.835449 23.79248 15.09668 23.79248 19.119629 Z"/>
        </g>
        <g id="XMLID-2768-">
            <path id="XMLID-18507-" fill="#ffffff" stroke="none" d="M 19.123535 30.95752 C 18.538574 30.95752 18.066406 30.484985 18.066406 29.899902 L 18.066406 24.032471 C 18.066406 23.44751 18.538574 22.974976 19.123535 22.974976 C 19.708984 22.974976 20.181641 23.44751 20.181641 24.032471 L 20.181641 29.899902 C 20.181641 30.484985 19.708984 30.95752 19.123535 30.95752 Z"/>
        </g>
    </g>
</svg>
