<?xml version="1.0" encoding="UTF-8"?>
<!-- Generated by Pixelmator Pro 3.7.1 -->
<svg width="124" height="268" viewBox="0 0 124 268" xmlns="http://www.w3.org/2000/svg">
    <g id="XMLID-2650--">
        <g id="XMLID-2794-">
            <g id="XMLID-3342-">
                <path id="XMLID-12625-" fill="#021433" stroke="none" d="M 18.820313 254.721313 C 15.625 253.841125 11.907227 253.841125 8.712891 254.721313 L 2.795898 254.721313 L 2.795898 259.699463 C 2.795898 261.16333 3.867188 262.625854 6.009766 263.742554 C 10.293945 265.974915 17.239258 265.974915 21.523438 263.742554 C 23.666016 262.625854 24.737305 261.16333 24.737305 259.699463 L 24.737305 254.721313 L 18.820313 254.721313 Z"/>
                <path id="XMLID-12627-" fill="#021433" stroke="none" d="M 13.766602 266.490936 C 10.800781 266.490936 7.834961 265.887939 5.518555 264.682495 C 3.078125 263.406372 1.737305 261.639648 1.737305 259.701782 L 1.737305 254.720276 C 1.737305 254.135376 2.208984 253.662842 2.794922 253.662842 L 8.573242 253.662842 C 11.881836 252.77655 15.651367 252.77655 18.960938 253.662842 L 24.739258 253.662842 C 25.324219 253.662842 25.796875 254.135376 25.796875 254.720276 L 25.796875 259.701782 C 25.796875 261.639648 24.456055 263.406372 22.015625 264.682495 C 19.706055 265.887939 16.733398 266.490936 13.766602 266.490936 Z M 3.852539 255.778259 L 3.852539 259.701782 C 3.852539 260.794556 4.81543 261.929077 6.499023 262.80365 C 10.505859 264.901215 17.02832 264.889526 21.03418 262.80365 C 22.71875 261.929077 23.681641 260.794556 23.681641 259.701782 L 23.681641 255.778259 L 18.818359 255.778259 C 18.724609 255.778259 18.629883 255.766296 18.535156 255.742371 C 15.557617 254.915344 11.976563 254.915344 8.998047 255.742371 C 8.904297 255.766296 8.80957 255.778259 8.714844 255.778259 L 3.852539 255.778259 Z"/>
            </g>
            <g id="XMLID-8601-">
                <g id="XMLID-9847-">
                    <g id="XMLID-9848-">
                        <linearGradient id="linearGradient1" x1="19.965" y1="236.4675" x2="41.142" y2="256.320917" gradientUnits="userSpaceOnUse">
                            <stop offset="0" stop-color="#bcfffe" stop-opacity="1"/>
                            <stop offset="1" stop-color="#5cc8fe" stop-opacity="1"/>
                        </linearGradient>
                        <path id="XMLID-9852-" fill="url(#linearGradient1)" stroke="none" d="M 21.524414 251.13446 C 17.240234 248.9021 10.293945 248.9021 6.009766 251.13446 C 1.725586 253.367615 1.725586 256.987488 6.009766 259.220337 C 10.293945 261.453247 17.240234 261.453247 21.524414 259.220337 C 25.807617 256.987488 25.807617 253.367615 21.524414 251.13446 Z"/>
                        <path id="XMLID-9849-" fill="#021433" stroke="none" d="M 13.766602 261.964661 C 10.800781 261.964661 7.834961 261.362183 5.518555 260.162598 C 3.078125 258.892029 1.737305 257.119507 1.737305 255.181335 C 1.737305 253.237366 3.078125 251.4646 5.518555 250.194519 C 10.151367 247.78363 17.382813 247.78363 22.015625 250.194519 C 24.456055 251.4646 25.796875 253.237366 25.796875 255.181335 C 25.796875 257.119507 24.456055 258.892029 22.015625 260.162598 C 19.699219 261.362183 16.733398 261.964661 13.766602 261.964661 Z M 13.766602 250.507568 C 11.137695 250.507568 8.501953 251.027405 6.499023 252.073425 C 4.821289 252.947998 3.852539 254.082458 3.852539 255.181335 C 3.852539 256.274658 4.821289 257.409119 6.499023 258.283203 C 10.505859 260.36322 17.02832 260.36322 21.03418 258.283203 C 22.712891 257.409119 23.681641 256.274658 23.681641 255.181335 C 23.681641 254.082458 22.712891 252.947998 21.03418 252.073425 C 19.03125 251.027405 16.396484 250.507568 13.766602 250.507568 Z"/>
                    </g>
                </g>
            </g>
            <g id="XMLID-2795-">
                <g id="XMLID-3340-">
                    <linearGradient id="linearGradient2" x1="19.965" y1="236.4675" x2="41.142" y2="256.320917" gradientUnits="userSpaceOnUse">
                        <stop offset="0" stop-color="#bcfffe" stop-opacity="1"/>
                        <stop offset="1" stop-color="#5cc8fe" stop-opacity="1"/>
                    </linearGradient>
                    <path id="XMLID-12615-" fill="url(#linearGradient2)" stroke="none" d="M 21.524414 251.13446 C 17.240234 248.9021 10.293945 248.9021 6.009766 251.13446 C 1.725586 253.367615 1.725586 256.987488 6.009766 259.220337 C 10.293945 261.453247 17.240234 261.453247 21.524414 259.220337 C 25.807617 256.987488 25.807617 253.367615 21.524414 251.13446 Z"/>
                    <path id="XMLID-12622-" fill="#021433" stroke="none" d="M 13.766602 261.964661 C 10.800781 261.964661 7.834961 261.362183 5.518555 260.162598 C 3.078125 258.892029 1.737305 257.119507 1.737305 255.181335 C 1.737305 253.237366 3.078125 251.4646 5.518555 250.194519 C 10.151367 247.78363 17.382813 247.78363 22.015625 250.194519 C 24.456055 251.4646 25.796875 253.237366 25.796875 255.181335 C 25.796875 257.119507 24.456055 258.892029 22.015625 260.162598 C 19.699219 261.362183 16.733398 261.964661 13.766602 261.964661 Z M 13.766602 250.507568 C 11.137695 250.507568 8.501953 251.027405 6.499023 252.073425 C 4.821289 252.947998 3.852539 254.082458 3.852539 255.181335 C 3.852539 256.274658 4.821289 257.409119 6.499023 258.283203 C 10.505859 260.36322 17.02832 260.36322 21.03418 258.283203 C 22.712891 257.409119 23.681641 256.274658 23.681641 255.181335 C 23.681641 254.082458 22.712891 252.947998 21.03418 252.073425 C 19.03125 251.027405 16.396484 250.507568 13.766602 250.507568 Z"/>
                </g>
            </g>
        </g>
        <g id="XMLID-2670-">
            <g id="XMLID-2793-">
                <path id="XMLID-12621-" fill="#021433" stroke="none" d="M 13.766602 253.450012 C 12.933594 253.450012 12.253906 252.770447 12.253906 251.937622 L 12.253906 27.753296 C 12.253906 26.920044 12.933594 26.240417 13.766602 26.240417 C 14.599609 26.240417 15.279297 26.920044 15.279297 27.753296 L 15.279297 251.937622 C 15.279297 252.770447 14.599609 253.450012 13.766602 253.450012 Z"/>
            </g>
            <g id="XMLID-2789-">
                <linearGradient id="linearGradient3" x1="23.318333" y1="4.69" x2="47.142458" y2="57.6325" gradientUnits="userSpaceOnUse">
                    <stop offset="0" stop-color="#bcfffe" stop-opacity="1"/>
                    <stop offset="1" stop-color="#5cc8fe" stop-opacity="1"/>
                </linearGradient>
                <path id="XMLID-12616-" fill="url(#linearGradient3)" stroke="none" d="M 21.333008 28.082886 L 21.333984 28.082153 L 13.766602 3.771729 L 6.199219 28.082153 L 6.201172 28.082886 C 5.764648 29.0896 5.509766 30.192566 5.509766 31.359192 C 5.509766 35.919189 9.206055 39.616272 13.766602 39.616272 C 18.328125 39.616272 22.023438 35.919189 22.023438 31.359192 C 22.023438 30.192566 21.768555 29.0896 21.333008 28.082886 Z"/>
                <path id="XMLID-12618-" fill="#021433" stroke="none" d="M 13.766602 40.675842 C 8.631836 40.675842 4.454102 36.498352 4.454102 31.357544 C 4.454102 30.098694 4.713867 28.85791 5.222656 27.664551 L 12.756836 3.456238 C 13.02832 2.569946 14.505859 2.569946 14.777344 3.456238 L 22.34668 27.770874 C 22.831055 28.922913 23.079102 30.128357 23.079102 31.357544 C 23.079102 36.498352 18.901367 40.675842 13.766602 40.675842 Z M 13.766602 7.332458 L 7.208008 28.397095 C 6.770508 29.425415 6.569336 30.388367 6.569336 31.357544 C 6.569336 35.328308 9.801758 38.560486 13.766602 38.560486 C 17.731445 38.560486 20.963867 35.328308 20.963867 31.357544 C 20.963867 30.388367 20.756836 29.425415 20.361328 28.509644 C 20.332031 28.438782 20.307617 28.367493 20.290039 28.290771 L 13.766602 7.332458 Z"/>
            </g>
            <g id="XMLID-2745-">
                <linearGradient id="linearGradient4" x1="150.7575" y1="82.931667" x2="21.048333" y2="208.22875" gradientUnits="userSpaceOnUse">
                    <stop offset="0" stop-color="#b8dea0" stop-opacity="1"/>
                    <stop offset="1" stop-color="#52b01e" stop-opacity="1"/>
                </linearGradient>
                <path id="XMLID-12611-" fill="url(#linearGradient4)" stroke="none" d="M 119.253906 44.349548 C 113.199219 52.337891 85.066406 64.850342 59.425781 55.944031 C 33.786133 47.037903 15.972656 67.342896 15.972656 67.342896 L 15.972656 122.630798 C 15.972656 122.630798 33.786133 102.326172 59.425781 111.232483 C 85.066406 120.138306 113.199219 107.626343 119.253906 99.637573 C 112.842773 99.078857 108.925781 74.732422 108.925781 74.732422 C 118.18457 62.268799 119.253906 44.349548 119.253906 44.349548 Z"/>
                <path id="XMLID-12612-" fill="#021433" stroke="none" d="M 15.970703 123.687988 C 15.84668 123.687988 15.716797 123.664063 15.598633 123.622864 C 15.18457 123.46344 14.913086 123.073303 14.913086 122.630066 L 14.913086 67.341614 C 14.913086 67.087769 15.007813 66.8396 15.172852 66.644531 C 15.362305 66.43219 33.726563 45.881287 59.772461 54.945374 C 85.529297 63.873291 112.904297 50.968689 118.411133 43.71283 C 118.701172 43.340393 119.203125 43.192932 119.623047 43.358337 C 120.05957 43.517944 120.34375 43.949097 120.313477 44.415771 C 120.266602 45.148682 119.137695 62.449646 110.043945 74.999451 C 111.663086 84.743225 115.550781 98.250305 119.350586 98.581665 C 119.734375 98.617004 120.06543 98.859131 120.224609 99.207825 C 120.378906 99.562561 120.332031 99.969971 120.100586 100.277466 C 113.276367 109.282166 84.210938 120.981567 59.075195 112.230896 C 34.371094 103.662842 16.94043 123.132568 16.768555 123.327637 C 16.561523 123.563599 16.271484 123.687988 15.970703 123.687988 Z M 17.02832 67.755371 L 17.02832 120.089722 C 22.328125 115.214539 38.477539 102.829956 59.772461 110.233826 C 84.270508 118.736267 110.22168 107.468384 117.448242 100.105774 C 111.657227 96.584045 108.501953 78.739929 107.881836 74.899292 C 107.834961 74.621582 107.905273 74.332153 108.077148 74.101746 C 114.783203 65.072876 117.117188 52.948242 117.867188 47.352478 C 108.3125 55.843323 82.041992 64.92511 59.075195 56.942505 C 36.037109 48.965454 19.30957 65.368408 17.02832 67.755371 Z"/>
            </g>
        </g>
    </g>
</svg>
