<?xml version="1.0" encoding="UTF-8"?>
<!-- Generated by Pixelmator Pro 3.7.1 -->
<svg width="179" height="326" viewBox="0 0 179 326" xmlns="http://www.w3.org/2000/svg">
    <g id="XMLID-3139--">
        <g id="XMLID-2052-">
            <path id="XMLID-14445-" fill="#021433" stroke="none" d="M 2.655273 306.10498 L 2.655273 83.959961 L 140.839844 4.178223 L 140.839844 226.317139 L 2.655273 306.10498 Z"/>
            <g id="XMLID-4401-">
                <path id="XMLID-21534-" fill="#021433" stroke="none" d="M 2.65625 307.16333 C 2.473633 307.16333 2.290039 307.115845 2.125 307.021606 C 1.799805 306.83252 1.599609 306.483765 1.599609 306.105469 L 1.599609 83.959961 C 1.599609 83.581787 1.799805 83.23291 2.125 83.044189 L 140.307617 3.263672 C 140.638672 3.074951 141.040039 3.074951 141.371094 3.263672 C 141.695313 3.452881 141.896484 3.801758 141.896484 4.179688 L 141.896484 226.31958 C 141.896484 226.697876 141.695313 227.046265 141.371094 227.235474 L 3.188477 307.021606 C 3.022461 307.115845 2.839844 307.16333 2.65625 307.16333 Z M 3.714844 84.568359 L 3.714844 304.273682 L 139.78125 225.710815 L 139.78125 6.011719 L 3.714844 84.568359 Z"/>
            </g>
        </g>
        <g id="XMLID-3176-">
            <linearGradient id="linearGradient1" x1="286.8025" y1="-80.14875" x2="34.062083" y2="693.152083" gradientUnits="userSpaceOnUse">
                <stop offset="0" stop-color="#e7f9fc" stop-opacity="1"/>
                <stop offset="1" stop-color="#c6f1f8" stop-opacity="1"/>
            </linearGradient>
            <path id="XMLID-14441-" fill="url(#linearGradient1)" stroke="none" d="M 174.390625 243.457153 L 36.205078 323.23877 L 36.205078 323.23877 C 17.953125 289.266235 8.400391 251.301636 8.400391 212.736694 L 8.400391 85.945068 L 146.584961 6.163818 L 146.584961 132.94873 C 146.584961 171.118774 155.944336 208.706665 173.84082 242.42041 L 174.390625 243.457153 Z"/>
            <g id="XMLID-14440-">
                <path id="XMLID-21531-" fill="#021433" stroke="none" d="M 36.207031 324.298706 C 36.112305 324.298706 36.011719 324.286621 35.916992 324.257446 C 35.639648 324.18042 35.40918 323.997559 35.273438 323.743286 C 16.99707 289.726685 7.342773 251.343384 7.342773 212.735474 L 7.342773 85.945068 C 7.342773 85.567139 7.543945 85.218262 7.868164 85.029053 L 146.056641 5.249268 C 146.387695 5.060059 146.789063 5.060059 147.120117 5.249268 C 147.444336 5.438232 147.645508 5.787109 147.645508 6.165039 L 147.645508 132.949097 C 147.645508 170.812988 157.029297 208.49292 174.772461 241.924561 L 175.322266 242.95874 C 175.59375 243.460815 175.411133 244.087158 174.920898 244.37085 L 36.738281 324.156616 C 36.573242 324.251221 36.389648 324.298706 36.207031 324.298706 Z M 9.458008 86.553711 L 9.458008 212.735474 C 9.458008 250.628296 18.852539 288.30835 36.625977 321.775879 L 172.976563 243.047485 L 172.905273 242.91748 C 154.996094 209.178345 145.530273 171.155396 145.530273 132.949097 L 145.530273 7.996582 L 9.458008 86.553711 Z"/>
            </g>
        </g>
        <g id="XMLID-3175-">
            <path id="XMLID-14439-" fill="#021433" stroke="none" d="M 36.207031 103.559204 C 35.84082 103.559204 35.486328 103.369995 35.291016 103.033325 C 34.996094 102.525024 35.172852 101.875 35.674805 101.585815 L 118.25 53.913818 C 118.757813 53.624268 119.402344 53.789551 119.697266 54.297852 C 119.993164 54.805908 119.81543 55.455811 119.313477 55.745361 L 36.738281 103.41748 C 36.567383 103.512085 36.389648 103.559204 36.207031 103.559204 Z"/>
        </g>
        <g id="XMLID-3172-">
            <path id="XMLID-14438-" fill="#021433" stroke="none" d="M 36.207031 126.000854 C 35.84082 126.000854 35.486328 125.811646 35.291016 125.474609 C 34.996094 124.966675 35.172852 124.31665 35.674805 124.0271 L 118.25 76.355469 C 118.757813 76.065918 119.402344 76.231201 119.697266 76.739258 C 119.993164 77.247559 119.81543 77.897461 119.313477 78.187012 L 36.738281 125.858765 C 36.567383 125.953369 36.389648 126.000854 36.207031 126.000854 Z"/>
        </g>
        <g id="XMLID-3167-">
            <path id="XMLID-14437-" fill="#021433" stroke="none" d="M 36.207031 148.447876 C 35.84082 148.447876 35.486328 148.259155 35.291016 147.922119 C 34.996094 147.414185 35.172852 146.76416 35.674805 146.474609 L 118.25 98.796631 C 118.757813 98.50708 119.402344 98.672485 119.697266 99.180908 C 119.993164 99.689209 119.81543 100.338745 119.313477 100.628296 L 36.738281 148.306274 C 36.567383 148.400879 36.389648 148.447876 36.207031 148.447876 Z"/>
        </g>
        <g id="XMLID-3166-">
            <path id="XMLID-14436-" fill="#021433" stroke="none" d="M 36.207031 169.684204 C 35.84082 169.684204 35.486328 169.494995 35.291016 169.158325 C 34.996094 168.650024 35.172852 168 35.674805 167.710449 L 118.25 120.038696 C 118.757813 119.755005 119.402344 119.914551 119.697266 120.422974 C 119.993164 120.930786 119.81543 121.580811 119.313477 121.870483 L 36.738281 169.54248 C 36.567383 169.636719 36.389648 169.684204 36.207031 169.684204 Z"/>
        </g>
        <g id="XMLID-3141-">
            <path id="XMLID-14435-" fill="#021433" stroke="none" d="M 36.207031 192.131714 C 35.84082 192.131714 35.486328 191.942505 35.291016 191.605835 C 34.996094 191.097534 35.172852 190.44751 35.674805 190.157837 L 118.25 142.47998 C 118.757813 142.196655 119.402344 142.356201 119.697266 142.864136 C 119.993164 143.372437 119.81543 144.022461 119.313477 144.312134 L 36.738281 191.989624 C 36.567383 192.084229 36.389648 192.131714 36.207031 192.131714 Z"/>
        </g>
        <g id="XMLID-3140-">
            <path id="XMLID-14434-" fill="#021433" stroke="none" d="M 36.207031 214.472534 C 35.84082 214.472534 35.486328 214.283325 35.291016 213.946655 C 34.996094 213.438354 35.172852 212.788818 35.674805 212.499146 L 118.25 164.827148 C 118.757813 164.537476 119.402344 164.702881 119.697266 165.211182 C 119.993164 165.719116 119.81543 166.369141 119.313477 166.658691 L 36.738281 214.330811 C 36.567383 214.425415 36.389648 214.472534 36.207031 214.472534 Z"/>
        </g>
    </g>
</svg>
