<?xml version="1.0" encoding="UTF-8"?>
<!-- Generated by Pixelmator Pro 3.7.1 -->
<svg width="124" height="268" viewBox="0 0 124 268" xmlns="http://www.w3.org/2000/svg">
    <g id="XMLID-1863--">
        <g id="XMLID-2666-">
            <g id="XMLID-2669-">
                <path id="XMLID-12679-" fill="#021433" stroke="none" d="M 19.479492 254.28241 C 16.285156 253.402527 12.566406 253.402527 9.371094 254.28241 L 3.456055 254.28241 L 3.456055 259.260864 C 3.456055 260.72467 4.526367 262.187012 6.668945 263.30365 C 10.952148 265.536316 17.898438 265.536316 22.182617 263.30365 C 24.325195 262.187012 25.396484 260.72467 25.396484 259.260864 L 25.396484 254.28241 L 19.479492 254.28241 Z"/>
                <path id="XMLID-12680-" fill="#021433" stroke="none" d="M 14.426758 266.049988 C 11.459961 266.049988 8.494141 265.447021 6.177734 264.241577 C 3.737305 262.965454 2.396484 261.19873 2.396484 259.260864 L 2.396484 254.285461 C 2.396484 253.700317 2.869141 253.227783 3.454102 253.227783 L 9.233398 253.227783 C 12.541992 252.347595 16.311523 252.347595 19.620117 253.227783 L 25.399414 253.227783 C 25.984375 253.227783 26.457031 253.700317 26.457031 254.285461 L 26.457031 259.260864 C 26.457031 261.19873 25.115234 262.965454 22.675781 264.241577 C 20.365234 265.447021 17.392578 266.049988 14.426758 266.049988 Z M 4.511719 255.343445 L 4.511719 259.260864 C 4.511719 260.353638 5.474609 261.488403 7.15918 262.362976 C 11.165039 264.454712 17.688477 264.454712 21.694336 262.362976 C 23.378906 261.488403 24.341797 260.353638 24.341797 259.260864 L 24.341797 255.343445 L 19.478516 255.343445 C 19.383789 255.343445 19.290039 255.331238 19.195313 255.3078 C 16.169922 254.468811 12.683594 254.47467 9.658203 255.3078 C 9.563477 255.331238 9.46875 255.343445 9.374023 255.343445 L 4.511719 255.343445 Z"/>
            </g>
            <g id="XMLID-9626-">
                <g id="XMLID-9832-">
                    <g id="XMLID-9833-">
                        <linearGradient id="linearGradient1" x1="20.624583" y1="236.02875" x2="41.801583" y2="255.882167" gradientUnits="userSpaceOnUse">
                            <stop offset="0" stop-color="#bcfffe" stop-opacity="1"/>
                            <stop offset="1" stop-color="#5cc8fe" stop-opacity="1"/>
                        </linearGradient>
                        <path id="XMLID-9839-" fill="url(#linearGradient1)" stroke="none" d="M 22.182617 250.69635 C 17.899414 248.463257 10.953125 248.463257 6.668945 250.69635 C 2.384766 252.928711 2.384766 256.549133 6.668945 258.781738 C 10.953125 261.014587 17.898438 261.014587 22.182617 258.781738 C 26.466797 256.549133 26.466797 252.928711 22.182617 250.69635 Z"/>
                        <path id="XMLID-9835-" fill="#021433" stroke="none" d="M 14.426758 261.529602 C 11.459961 261.529602 8.494141 260.927124 6.177734 259.72168 C 3.737305 258.451111 2.396484 256.678833 2.396484 254.734619 C 2.396484 252.796753 3.744141 251.030029 6.177734 249.75946 C 10.810547 247.348816 18.042969 247.348816 22.675781 249.75946 L 22.675781 249.75946 C 25.109375 251.030029 26.457031 252.796753 26.457031 254.734619 C 26.457031 256.678833 25.115234 258.451111 22.675781 259.72168 C 20.359375 260.927124 17.392578 261.529602 14.426758 261.529602 Z M 14.426758 250.07251 C 11.796875 250.07251 9.162109 250.59259 7.15918 251.638306 C 5.480469 252.512939 4.517578 253.641541 4.511719 254.734619 C 4.511719 255.83374 5.474609 256.968201 7.15918 257.842529 C 11.165039 259.934265 17.688477 259.934265 21.694336 257.842529 C 23.378906 256.968201 24.341797 255.83374 24.341797 254.734619 C 24.335938 253.641541 23.37207 252.512939 21.694336 251.638306 L 21.694336 251.638306 C 19.691406 250.59259 17.055664 250.07251 14.426758 250.07251 Z"/>
                    </g>
                </g>
            </g>
            <g id="XMLID-2667-">
                <g id="XMLID-3344-">
                    <linearGradient id="linearGradient2" x1="20.624583" y1="236.02875" x2="41.801583" y2="255.882167" gradientUnits="userSpaceOnUse">
                        <stop offset="0" stop-color="#bcfffe" stop-opacity="1"/>
                        <stop offset="1" stop-color="#5cc8fe" stop-opacity="1"/>
                    </linearGradient>
                    <path id="XMLID-12648-" fill="url(#linearGradient2)" stroke="none" d="M 22.182617 250.69635 C 17.899414 248.463257 10.953125 248.463257 6.668945 250.69635 C 2.384766 252.928711 2.384766 256.549133 6.668945 258.781738 C 10.953125 261.014587 17.898438 261.014587 22.182617 258.781738 C 26.466797 256.549133 26.466797 252.928711 22.182617 250.69635 Z"/>
                    <path id="XMLID-12676-" fill="#021433" stroke="none" d="M 14.426758 261.529602 C 11.459961 261.529602 8.494141 260.927124 6.177734 259.72168 C 3.737305 258.451111 2.396484 256.678833 2.396484 254.734619 C 2.396484 252.796753 3.744141 251.030029 6.177734 249.75946 C 10.810547 247.348816 18.042969 247.348816 22.675781 249.75946 L 22.675781 249.75946 C 25.109375 251.030029 26.457031 252.796753 26.457031 254.734619 C 26.457031 256.678833 25.115234 258.451111 22.675781 259.72168 C 20.359375 260.927124 17.392578 261.529602 14.426758 261.529602 Z M 14.426758 250.07251 C 11.796875 250.07251 9.162109 250.59259 7.15918 251.638306 C 5.480469 252.512939 4.517578 253.641541 4.511719 254.734619 C 4.511719 255.83374 5.474609 256.968201 7.15918 257.842529 C 11.165039 259.934265 17.688477 259.934265 21.694336 257.842529 C 23.378906 256.968201 24.341797 255.83374 24.341797 254.734619 C 24.335938 253.641541 23.37207 252.512939 21.694336 251.638306 L 21.694336 251.638306 C 19.691406 250.59259 17.055664 250.07251 14.426758 250.07251 Z"/>
                </g>
            </g>
        </g>
        <g id="XMLID-3341-">
            <g id="XMLID-3343-">
                <path id="XMLID-12669-" fill="#021433" stroke="none" d="M 14.426758 253.009094 C 13.59375 253.009094 12.914063 252.329529 12.914063 251.496704 L 12.914063 27.3125 C 12.914063 26.479126 13.59375 25.799622 14.426758 25.799622 C 15.259766 25.799622 15.939453 26.479126 15.939453 27.3125 L 15.939453 251.496704 C 15.939453 252.329529 15.259766 253.009094 14.426758 253.009094 Z"/>
            </g>
            <g id="XMLID-2661-">
                <linearGradient id="linearGradient3" x1="23.9775" y1="4.25125" x2="47.801625" y2="57.19375" gradientUnits="userSpaceOnUse">
                    <stop offset="0" stop-color="#bcfffe" stop-opacity="1"/>
                    <stop offset="1" stop-color="#5cc8fe" stop-opacity="1"/>
                </linearGradient>
                <path id="XMLID-12660-" fill="url(#linearGradient3)" stroke="none" d="M 21.992188 27.644165 L 21.993164 27.643738 L 14.425781 3.332947 L 6.858398 27.643738 L 6.859375 27.644165 C 6.423828 28.650818 6.168945 29.753784 6.168945 30.920471 C 6.168945 35.480408 9.866211 39.17749 14.425781 39.17749 C 18.986328 39.17749 22.682617 35.480408 22.682617 30.920471 C 22.682617 29.753784 22.428711 28.650818 21.992188 27.644165 Z"/>
                <path id="XMLID-12661-" fill="#021433" stroke="none" d="M 14.426758 40.234558 C 9.286133 40.234558 5.108398 36.057434 5.108398 30.922485 C 5.108398 29.675842 5.368164 28.435059 5.881836 27.229614 L 13.416016 3.021301 C 13.688477 2.13501 15.165039 2.13501 15.4375 3.021301 L 23.005859 27.329956 L 23.005859 27.329956 C 23.491211 28.488342 23.738281 29.699646 23.738281 30.922485 C 23.738281 36.057434 19.561523 40.234558 14.426758 40.234558 Z M 14.426758 6.897522 L 7.868164 27.956299 C 7.430664 29.002075 7.223633 29.965393 7.223633 30.922485 C 7.223633 34.893311 10.456055 38.119568 14.426758 38.119568 C 18.391602 38.119568 21.623047 34.893311 21.623047 30.922485 C 21.623047 29.953796 21.416992 28.990479 21.021484 28.062866 C 20.985352 27.997864 20.967773 27.920837 20.950195 27.850037 L 14.426758 6.897522 Z"/>
            </g>
            <g id="XMLID-2660-">
                <linearGradient id="linearGradient4" x1="152.779583" y1="80.97625" x2="26.6" y2="203.62625" gradientUnits="userSpaceOnUse">
                    <stop offset="0" stop-color="#e7f9fc" stop-opacity="1"/>
                    <stop offset="1" stop-color="#c6f1f8" stop-opacity="1"/>
                </linearGradient>
                <path id="XMLID-12649-" fill="url(#linearGradient4)" stroke="none" d="M 119.913086 43.910767 C 113.858398 51.899109 85.725586 64.411743 60.085938 55.505432 C 34.445313 46.599121 16.631836 66.904114 16.631836 66.904114 L 16.631836 122.192078 C 16.631836 122.192078 34.445313 101.887573 60.085938 110.793762 C 85.725586 119.699524 113.858398 107.187439 119.913086 99.19873 C 113.50293 98.639954 109.584961 74.293701 109.584961 74.293701 C 118.84375 61.830078 119.913086 43.910767 119.913086 43.910767 Z"/>
                <path id="XMLID-12651-" fill="#021433" stroke="none" d="M 16.630859 123.24707 C 16.506836 123.24707 16.376953 123.223267 16.257813 123.182068 C 15.844727 123.022522 15.573242 122.632507 15.573242 122.189148 L 15.573242 66.907043 C 15.573242 66.652832 15.667969 66.404663 15.833008 66.209595 C 16.016602 65.997131 34.416016 45.440491 60.431641 54.504578 C 86.182617 63.432495 113.563477 50.527893 119.064453 43.272095 C 119.354492 42.899597 119.856445 42.757996 120.276367 42.917542 C 120.712891 43.077148 120.99707 43.508301 120.967773 43.974976 C 120.919922 44.707947 119.796875 62.014587 110.704102 74.558716 C 112.323242 84.308289 116.210938 97.815857 119.998047 98.140869 C 120.382813 98.17627 120.719727 98.418335 120.878906 98.767151 C 121.032227 99.121643 120.985352 99.529175 120.754883 99.83667 C 113.929688 108.853333 84.876953 120.528687 59.735352 111.789978 C 35.030273 103.222046 17.599609 122.69165 17.428711 122.886719 C 17.22168 123.122986 16.932617 123.24707 16.630859 123.24707 Z M 17.688477 67.320435 L 17.688477 119.648254 C 22.988281 114.779602 39.149414 102.389221 60.431641 109.792908 C 84.929688 118.295471 110.886719 107.039185 118.101563 99.664978 C 112.316406 96.149597 109.162109 78.299133 108.541016 74.458374 C 108.494141 74.18042 108.564453 73.891235 108.736328 73.660828 C 115.448242 64.626221 117.776367 52.501221 118.527344 46.911682 C 108.972656 55.414612 82.719727 64.490417 59.735352 56.501709 C 36.726563 48.501282 19.96875 64.933289 17.688477 67.320435 Z"/>
            </g>
        </g>
    </g>
</svg>
