<?xml version="1.0" encoding="UTF-8"?>
<!-- Generated by Pixelmator Pro 3.7.1 -->
<svg width="124" height="268" viewBox="0 0 124 268" xmlns="http://www.w3.org/2000/svg">
    <g id="XMLID-2766--">
        <g id="XMLID-2792-">
            <g id="XMLID-3368-">
                <path id="XMLID-12644-" fill="#021433" stroke="none" d="M 19.554688 254.554138 C 16.359375 253.673706 12.640625 253.673706 9.446289 254.554138 L 3.530273 254.554138 L 3.530273 259.53241 C 3.530273 260.995728 4.601563 262.458801 6.743164 263.575012 C 11.026367 265.807861 17.973633 265.807861 22.256836 263.575012 C 24.400391 262.458801 25.470703 260.995728 25.470703 259.53241 L 25.470703 254.554138 L 19.554688 254.554138 Z"/>
                <path id="XMLID-12645-" fill="#021433" stroke="none" d="M 14.50293 266.323853 C 11.530273 266.323853 8.563477 265.720886 6.253906 264.515442 C 3.813477 263.245422 2.472656 261.478455 2.472656 259.534485 L 2.472656 254.553345 C 2.472656 253.968323 2.944336 253.495789 3.529297 253.495789 L 9.302734 253.495789 C 12.624023 252.615356 16.398438 252.615356 19.696289 253.495789 L 25.469727 253.495789 C 26.054688 253.495789 26.527344 253.968323 26.527344 254.553345 L 26.527344 259.534485 C 26.527344 261.478455 25.185547 263.245422 22.745117 264.515442 C 20.435547 265.720886 17.46875 266.323853 14.50293 266.323853 Z M 4.587891 255.611206 L 4.587891 259.534485 C 4.587891 260.63385 5.550781 261.762024 7.235352 262.636597 C 11.235352 264.722473 17.75293 264.728333 21.764648 262.636597 C 23.448242 261.762024 24.412109 260.63385 24.412109 259.534485 L 24.412109 255.611206 L 19.554688 255.611206 C 19.459961 255.611206 19.365234 255.599243 19.270508 255.575806 C 16.240234 254.742432 12.748047 254.742432 9.728516 255.575806 C 9.633789 255.599243 9.539063 255.611206 9.445313 255.611206 L 4.587891 255.611206 Z"/>
            </g>
            <g id="XMLID-8613-">
                <g id="XMLID-9841-">
                    <g id="XMLID-9842-">
                        <linearGradient id="linearGradient1" x1="20.699167" y1="236.3" x2="41.876167" y2="256.153417" gradientUnits="userSpaceOnUse">
                            <stop offset="0" stop-color="#bcfffe" stop-opacity="1"/>
                            <stop offset="1" stop-color="#5cc8fe" stop-opacity="1"/>
                        </linearGradient>
                        <path id="XMLID-9846-" fill="url(#linearGradient1)" stroke="none" d="M 22.256836 250.967529 C 17.973633 248.734558 11.027344 248.734558 6.743164 250.967529 C 2.458984 253.200439 2.458984 256.820435 6.743164 259.053284 C 11.027344 261.28595 17.973633 261.28595 22.256836 259.053284 C 26.541992 256.820435 26.541992 253.200012 22.256836 250.967529 Z"/>
                        <path id="XMLID-9843-" fill="#021433" stroke="none" d="M 14.496094 261.797607 C 11.530273 261.797607 8.563477 261.194885 6.253906 259.995544 C 3.813477 258.724976 2.472656 256.952454 2.472656 255.01416 C 2.472656 253.070496 3.813477 251.297546 6.253906 250.027466 C 10.874023 247.610901 18.125 247.622437 22.745117 250.027466 C 25.185547 251.297546 26.527344 253.070496 26.527344 255.01416 C 26.527344 256.952454 25.185547 258.724976 22.745117 259.995544 C 20.435547 261.194885 17.462891 261.797607 14.496094 261.797607 Z M 14.50293 250.340393 C 11.868164 250.340393 9.238281 250.860352 7.235352 251.90625 C 5.556641 252.780823 4.587891 253.915405 4.587891 255.01416 C 4.587891 256.107605 5.556641 257.242065 7.235352 258.11615 C 11.241211 260.196167 17.757813 260.196167 21.764648 258.11615 C 23.442383 257.242065 24.412109 256.107605 24.412109 255.01416 C 24.412109 253.915405 23.442383 252.780823 21.764648 251.90625 C 19.760742 250.860352 17.131836 250.340393 14.50293 250.340393 Z"/>
                    </g>
                </g>
            </g>
            <g id="XMLID-3362-">
                <g id="XMLID-3366-">
                    <linearGradient id="linearGradient2" x1="20.699167" y1="236.3" x2="41.876167" y2="256.153417" gradientUnits="userSpaceOnUse">
                        <stop offset="0" stop-color="#bcfffe" stop-opacity="1"/>
                        <stop offset="1" stop-color="#5cc8fe" stop-opacity="1"/>
                    </linearGradient>
                    <path id="XMLID-12635-" fill="url(#linearGradient2)" stroke="none" d="M 22.256836 250.967529 C 17.973633 248.734558 11.027344 248.734558 6.743164 250.967529 C 2.458984 253.200439 2.458984 256.820435 6.743164 259.053284 C 11.027344 261.28595 17.973633 261.28595 22.256836 259.053284 C 26.541992 256.820435 26.541992 253.200012 22.256836 250.967529 Z"/>
                    <path id="XMLID-12641-" fill="#021433" stroke="none" d="M 14.496094 261.797607 C 11.530273 261.797607 8.563477 261.194885 6.253906 259.995544 C 3.813477 258.724976 2.472656 256.952454 2.472656 255.01416 C 2.472656 253.070496 3.813477 251.297546 6.253906 250.027466 C 10.874023 247.610901 18.125 247.622437 22.745117 250.027466 C 25.185547 251.297546 26.527344 253.070496 26.527344 255.01416 C 26.527344 256.952454 25.185547 258.724976 22.745117 259.995544 C 20.435547 261.194885 17.462891 261.797607 14.496094 261.797607 Z M 14.50293 250.340393 C 11.868164 250.340393 9.238281 250.860352 7.235352 251.90625 C 5.556641 252.780823 4.587891 253.915405 4.587891 255.01416 C 4.587891 256.107605 5.556641 257.242065 7.235352 258.11615 C 11.241211 260.196167 17.757813 260.196167 21.764648 258.11615 C 23.442383 257.242065 24.412109 256.107605 24.412109 255.01416 C 24.412109 253.915405 23.442383 252.780823 21.764648 251.90625 C 19.760742 250.860352 17.131836 250.340393 14.50293 250.340393 Z"/>
                </g>
            </g>
        </g>
        <g id="XMLID-2787-">
            <g id="XMLID-2791-">
                <path id="XMLID-12640-" fill="#021433" stroke="none" d="M 14.50293 253.282959 C 13.669922 253.282959 12.990234 252.603271 12.990234 251.770447 L 12.990234 27.580017 C 12.990234 26.747009 13.669922 26.067505 14.50293 26.067505 C 15.335938 26.067505 16.015625 26.747009 16.015625 27.580017 L 16.015625 251.770447 C 16.015625 252.603271 15.335938 253.282959 14.50293 253.282959 Z"/>
            </g>
            <g id="XMLID-2790-">
                <linearGradient id="linearGradient3" x1="24.052083" y1="4.522917" x2="47.876208" y2="57.465417" gradientUnits="userSpaceOnUse">
                    <stop offset="0" stop-color="#bcfffe" stop-opacity="1"/>
                    <stop offset="1" stop-color="#5cc8fe" stop-opacity="1"/>
                </linearGradient>
                <path id="XMLID-12636-" fill="url(#linearGradient3)" stroke="none" d="M 22.067383 27.915833 L 22.068359 27.914978 L 14.500977 3.604126 L 6.933594 27.914978 L 6.93457 27.915833 C 6.498047 28.922058 6.243164 30.024963 6.243164 31.192017 C 6.243164 35.751587 9.941406 39.449219 14.500977 39.449219 C 19.060547 39.449219 22.757813 35.751587 22.757813 31.192017 C 22.757813 30.024963 22.50293 28.922058 22.067383 27.915833 Z"/>
                <path id="XMLID-12637-" fill="#021433" stroke="none" d="M 14.50293 40.508789 C 9.362305 40.508789 5.18457 36.331177 5.18457 31.190369 C 5.18457 29.925781 5.445313 28.684998 5.964844 27.491638 L 13.492188 3.289185 C 13.628906 2.846313 14.041992 2.544556 14.50293 2.544556 L 14.50293 2.544556 C 14.963867 2.544556 15.37793 2.846313 15.512695 3.289185 L 23.058594 27.550781 C 23.561523 28.720337 23.814453 29.943726 23.814453 31.190369 C 23.814453 36.331177 19.637695 40.508789 14.50293 40.508789 Z M 14.50293 7.165405 L 7.943359 28.230042 C 7.506836 29.258362 7.300781 30.215454 7.300781 31.190369 C 7.300781 35.161255 10.532227 38.393311 14.50293 38.393311 C 18.472656 38.393311 21.699219 35.161255 21.699219 31.190369 C 21.699219 30.215454 21.493164 29.258362 21.09668 28.342468 C 21.079102 28.307129 21.067383 28.265381 21.055664 28.230042 L 14.50293 7.165405 Z"/>
            </g>
            <g id="XMLID-2788-">
                <linearGradient id="linearGradient4" x1="152.854167" y1="81.2475" x2="26.674583" y2="203.8975" gradientUnits="userSpaceOnUse">
                    <stop offset="0" stop-color="#feee98" stop-opacity="1"/>
                    <stop offset="1" stop-color="#fecc34" stop-opacity="1"/>
                </linearGradient>
                <path id="XMLID-12630-" fill="url(#linearGradient4)" stroke="none" d="M 119.986328 44.182068 C 113.932617 52.170471 85.800781 64.682922 60.160156 55.776611 C 34.519531 46.870422 16.707031 67.175415 16.707031 67.175415 L 16.707031 122.463745 C 16.707031 122.463745 34.519531 102.158752 60.160156 111.065063 C 85.800781 119.971252 113.932617 107.45874 119.986328 99.470032 C 113.577148 98.911682 109.65918 74.565369 109.65918 74.565369 C 118.918945 62.101257 119.986328 44.182068 119.986328 44.182068 Z"/>
                <path id="XMLID-12632-" fill="#021433" stroke="none" d="M 16.707031 123.520813 C 16.583008 123.520813 16.453125 123.497009 16.333984 123.455811 C 15.920898 123.296265 15.649414 122.90625 15.649414 122.462891 L 15.649414 67.175049 C 15.649414 66.920898 15.744141 66.672546 15.908203 66.477478 C 16.092773 66.265015 34.467773 45.714233 60.507813 54.77832 C 86.300781 63.72998 113.646484 50.801636 119.141602 43.545776 C 119.430664 43.17334 119.926758 43.025879 120.351563 43.191284 C 120.789063 43.350891 121.073242 43.782043 121.043945 44.248718 C 120.996094 44.981628 119.867188 62.282471 110.774414 74.832581 C 112.392578 84.576294 116.28125 98.083374 120.080078 98.414612 C 120.464844 98.449951 120.794922 98.692078 120.955078 99.040894 C 121.108398 99.395386 121.060547 99.802917 120.831055 100.110413 C 114 109.127075 84.947266 120.802979 59.811523 112.063721 C 35.107422 103.495789 17.675781 122.965393 17.504883 123.160461 C 17.296875 123.396729 17.007813 123.520813 16.707031 123.520813 Z M 17.763672 67.588318 L 17.763672 119.922546 C 23.064453 115.047485 39.212891 102.668762 60.507813 110.06665 C 85.041016 118.587158 110.96875 107.307068 118.177734 99.938721 C 112.386719 96.42334 109.232422 78.572876 108.611328 74.732117 C 108.563477 74.454651 108.634766 74.164978 108.806641 73.93457 C 115.512695 64.905823 117.847656 52.781311 118.59668 47.185425 C 109.048828 55.688354 82.795898 64.76416 59.811523 56.775452 C 36.766602 48.792542 20.044922 65.201233 17.763672 67.588318 Z"/>
            </g>
        </g>
    </g>
</svg>
